#!OML:ASF F:\VICON\USERDATA\INSTALL\rory3\rory3.ASF
:FULLY-SPECIFIED
:DEGREES
2616
root -14.9878 17.8203 13.7146 184.519 -20.46 177.954
lowerback 11.2837 0.179967 1.73751
upperback 1.26889 0.394547 1.26379
thorax -4.99708 0.117074 0.284848
lowerneck -11.9482 0.859334 -12.0298
upperneck 42.0466 -2.50622 4.83847
head 17.7423 -3.89005 3.48146
rclavicle -5.725e-014 -4.77083e-015
rhumerus -33.6654 -9.48845 -72.5151
rradius 33.2396
rwrist 3.31261
rhand -18.3091 4.50741
rfingers 7.12502
rthumb 7.97199 -25.3223
lclavicle -5.725e-014 -4.77083e-015
lhumerus -34.5262 9.15508 79.8812
lradius 37.6015
lwrist -1.44244
lhand -20.4998 28.1055
lfingers 7.12502
lthumb 5.85733 58.0046
rfemur -15.9653 -7.62103 23.4496
rtibia 35.4542
rfoot -17.6576 -20.606
rtoes 7.20152
lfemur -15.9354 3.15759 -21.2285
ltibia 40.7902
lfoot -11.7203 5.99908
ltoes -1.40537
2617
root -14.9676 17.8126 13.7194 184.607 -21.7846 178.089
lowerback 11.2906 0.174313 1.94401
upperback 1.16052 0.422349 1.2776
thorax -5.11308 0.128223 0.178659
lowerneck -11.899 0.867021 -12.0913
upperneck 42.1062 -2.43361 4.85501
head 17.7577 -3.85612 3.51987
rclavicle 1.59028e-015 -2.06736e-014
rhumerus -34.0291 -9.41387 -72.5588
rradius 33.4185
rwrist 3.47356
rhand -18.6546 4.20502
rfingers 7.12502
rthumb 7.63857 -25.637
lclavicle 1.59028e-015 -2.06736e-014
lhumerus -34.6256 9.59931 79.8358
lradius 37.4328
lwrist -1.56666
lhand -20.0533 28.1769
lfingers 7.12502
lthumb 6.28835 58.0635
rfemur -16.2167 -7.95093 23.7249
rtibia 35.7126
rfoot -17.4145 -21.2816
rtoes 6.2169
lfemur -15.5999 3.47159 -21.1412
ltibia 40.2778
lfoot -11.3138 5.83652
ltoes -3.36766
2618
root -14.952 17.803 13.721 184.735 -23.1135 178.055
lowerback 11.1822 0.183526 2.00461
upperback 1.08881 0.444925 1.2067
thorax -5.12667 0.140516 0.0669354
lowerneck -11.7601 0.835778 -12.0058
upperneck 42.0765 -2.44863 4.83256
head 17.7047 -3.83128 3.4969
rclavicle -2.5842e-014 -7.95139e-016
rhumerus -34.4471 -9.34854 -72.7193
rradius 33.6009
rwrist 3.40305
rhand -18.9279 4.35937
rfingers 7.12502
rthumb 7.37473 -25.4921
lclavicle -2.5842e-014 -7.95139e-016
lhumerus -34.7694 9.71842 79.8166
lradius 37.4096
lwrist -1.44942
lhand -19.7005 27.9482
lfingers 7.12502
lthumb 6.62896 57.8245
rfemur -16.4458 -8.35928 23.8043
rtibia 36.041
rfoot -17.2911 -21.9124
rtoes 5.16891
lfemur -15.2042 3.94679 -21.2274
ltibia 39.6623
lfoot -11.0085 5.5256
ltoes -6.9083
2619
root -14.938 17.7923 13.7208 184.951 -24.4437 177.88
lowerback 10.9989 0.206981 1.92933
upperback 1.0526 0.465974 1.13402
thorax -5.06223 0.155368 0.0303673
lowerneck -11.688 0.770528 -11.9993
upperneck 42.0007 -2.44045 4.77493
head 17.6422 -3.80445 3.47641
rclavicle 1.11319e-014 3.02153e-014
rhumerus -34.8149 -9.46296 -72.7926
rradius 33.7888
rwrist 3.26012
rhand -18.8315 5.10825
rfingers 7.12502
rthumb 7.46781 -24.7399
lclavicle 1.11319e-014 3.02153e-014
lhumerus -34.8604 9.87865 79.8706
lradius 37.3679
lwrist -1.41085
lhand -19.588 27.5864
lfingers 7.12502
lthumb 6.73756 57.4592
rfemur -16.7191 -8.81288 23.7299
rtibia 36.4418
rfoot -17.4916 -22.3405
rtoes 4.65727
lfemur -14.8039 4.44663 -21.4457
ltibia 38.9398
lfoot -11.2688 4.91196
ltoes -10.4895
2620
root -14.9295 17.7832 13.7191 185.138 -25.7774 177.717
lowerback 10.8309 0.23043 1.90819
upperback 1.01626 0.494058 1.0779
thorax -5.00601 0.172155 -0.0202406
lowerneck -11.5523 0.7139 -11.9474
upperneck 41.8884 -2.41479 4.66065
head 17.5381 -3.76899 3.4234
rclavicle -2.94201e-014 1.90833e-014
rhumerus -35.1456 -9.60254 -72.8259
rradius 33.9725
rwrist 2.96565
rhand -18.5772 5.82624
rfingers 7.12502
rthumb 7.71322 -24.0131
lclavicle -2.94201e-014 1.90833e-014
lhumerus -34.9913 10.0782 79.9363
lradius 37.2789
lwrist -1.47841
lhand -19.4028 27.238
lfingers 7.12502
lthumb 6.91635 57.105
rfemur -16.9547 -9.29731 23.6232
rtibia 36.8922
rfoot -17.9704 -22.2246
rtoes 5.50881
lfemur -14.3098 4.96639 -21.6317
ltibia 38.0775
lfoot -11.7239 4.05624
ltoes -10.866
2621
root -14.925 17.7783 13.7151 185.325 -27.1209 177.506
lowerback 10.5994 0.225166 1.81034
upperback 1.02886 0.471555 1.04908
thorax -4.86451 0.165727 0.00871124
lowerneck -11.4439 0.644975 -11.9258
upperneck 41.794 -2.431 4.6006
head 17.4586 -3.7515 3.39401
rclavicle 4.77083e-015 2.14687e-014
rhumerus -35.3009 -9.54591 -72.9117
rradius 34.0981
rwrist 2.7619
rhand -18.5359 5.88756
rfingers 7.12502
rthumb 7.75313 -23.9503
lclavicle 4.77083e-015 2.14687e-014
lhumerus -35.0695 10.2913 80.0277
lradius 37.1517
lwrist -1.46367
lhand -18.9316 26.816
lfingers 7.12502
lthumb 7.37117 56.6676
rfemur -17.1237 -9.86867 23.432
rtibia 37.342
rfoot -18.3328 -21.8375
rtoes 5.83143
lfemur -13.7637 5.38503 -21.8586
ltibia 37.0859
lfoot -12.0867 3.39129
ltoes -9.20645
2622
root -14.9228 17.7689 13.7111 185.492 -28.2653 177.209
lowerback 10.4029 0.277139 1.61118
upperback 1.10112 0.509945 0.990602
thorax -4.68007 0.190341 0.0550082
lowerneck -11.4753 0.579639 -11.9054
upperneck 41.7683 -2.41135 4.50837
head 17.4512 -3.72635 3.3573
rclavicle -3.99557e-014 2.06736e-014
rhumerus -35.3779 -9.47 -73.0483
rradius 34.177
rwrist 2.8247
rhand -18.5802 5.95125
rfingers 7.12502
rthumb 7.71039 -23.8882
lclavicle -3.99557e-014 2.06736e-014
lhumerus -35.111 10.3401 80.1803
lradius 37.1129
lwrist -1.11494
lhand -19.1675 27.1164
lfingers 7.12502
lthumb 7.14347 56.9759
rfemur -17.1861 -10.0573 23.0754
rtibia 37.7875
rfoot -18.4567 -21.8683
rtoes 4.94999
lfemur -13.1198 5.75828 -22.1701
ltibia 35.9819
lfoot -12.4951 3.07227
ltoes -9.30925
2623
root -14.9244 17.7593 13.709 185.626 -29.3496 177.087
lowerback 10.2198 0.397948 1.68695
upperback 1.12557 0.673321 0.910304
thorax -4.54879 0.271261 -0.0933048
lowerneck -11.5094 0.486179 -11.9288
upperneck 41.77 -2.45155 4.48005
head 17.4699 -3.72587 3.34871
rclavicle 1.37161e-014 9.54166e-015
rhumerus -35.9065 -9.66089 -73.1417
rradius 34.7678
rwrist 2.86528
rhand -18.4612 5.9852
rfingers 7.12502
rthumb 7.82522 -23.85
lclavicle 1.37161e-014 9.54166e-015
lhumerus -35.1493 10.2799 80.3486
lradius 36.994
lwrist -0.904471
lhand -20.2654 28.1497
lfingers 7.12502
lthumb 6.08362 58.0423
rfemur -17.2922 -9.99022 22.8703
rtibia 38.216
rfoot -18.4272 -22.3166
rtoes 3.88413
lfemur -12.5177 5.96584 -22.3036
ltibia 34.8006
lfoot -12.9652 3.11043
ltoes -10.1616
2624
root -14.9237 17.7519 13.7111 185.83 -30.681 176.903
lowerback 10.0894 0.430208 1.70947
upperback 1.0986 0.717643 0.842927
thorax -4.50249 0.294551 -0.181494
lowerneck -11.5133 0.385652 -11.9411
upperneck 41.7777 -2.52837 4.4671
head 17.4886 -3.73993 3.33829
rclavicle 2.16675e-014 7.15625e-015
rhumerus -36.4394 -9.83013 -73.2593
rradius 35.2889
rwrist 2.73445
rhand -18.3035 5.80559
rfingers 7.12502
rthumb 7.97742 -24.0239
lclavicle 2.16675e-014 7.15625e-015
lhumerus -35.2614 10.4261 80.4389
lradius 36.9043
lwrist -1.10263
lhand -20.8125 28.707
lfingers 7.12502
lthumb 5.55535 58.6141
rfemur -17.4565 -10.2375 22.6544
rtibia 38.6737
rfoot -18.6096 -22.7941
rtoes 3.08343
lfemur -12.0358 5.96613 -22.4703
ltibia 33.5652
lfoot -13.3315 3.12276
ltoes -10.6235
2625
root -14.921 17.7426 13.7123 186.096 -32.1569 176.488
lowerback 9.99873 0.353835 1.47403
upperback 1.09732 0.588598 0.766894
thorax -4.4569 0.236514 -0.109974
lowerneck -11.5167 0.362766 -11.8387
upperneck 41.7778 -2.48419 4.36962
head 17.4825 -3.69887 3.28787
rclavicle -3.37934e-015 -1.19271e-014
rhumerus -36.3698 -9.45375 -73.5722
rradius 35.0986
rwrist 2.26471
rhand -18.0656 6.36628
rfingers 7.12502
rthumb 8.20706 -23.4543
lclavicle -3.37934e-015 -1.19271e-014
lhumerus -35.3294 10.7855 80.4529
lradius 36.7068
lwrist -1.31378
lhand -20.7586 28.717
lfingers 7.12502
lthumb 5.60744 58.6228
rfemur -17.5221 -10.6926 22.2399
rtibia 39.1479
rfoot -19.0021 -23.2441
rtoes 3.09415
lfemur -11.5935 5.87235 -22.8128
ltibia 32.3664
lfoot -13.5256 2.5909
ltoes -10.0791
